<svg width="128" height="128" viewBox="0 0 128 128" fill="none" xmlns="http://www.w3.org/2000/svg">
<path d="M63.5 64.5C60.5371 63.9568 57.7103 62.8354 55.1808 61.1997C52.6513 59.564 50.4688 57.4461 48.7578 54.9669C45.3023 49.96 43.9774 43.7855 45.0744 37.8017C46.1714 31.8179 49.6006 26.515 54.6075 23.0595C59.6144 19.6041 65.7889 18.2791 71.7727 19.3761C74.7646 19.9246 77.4161 21.6392 79.1438 24.1427C80.8715 26.6461 81.534 29.7334 80.9855 32.7253C80.437 35.7172 78.7224 38.3686 76.219 40.0964C73.7155 41.8241 70.6283 42.4866 67.6364 41.9381C64.6445 41.3895 61.5572 42.052 59.0537 43.7798C56.5503 45.5075 54.8357 48.159 54.2872 51.1509C53.7387 54.1428 54.4012 57.23 56.1289 59.7335C57.8566 62.2369 60.5081 63.9515 63.5 64.5C64.597 58.5162 68.0262 53.2133 73.0331 49.7578C78.04 46.3023 84.2145 44.9774 90.1983 46.0744C96.1821 47.1714 101.485 50.6006 104.94 55.6075C108.396 60.6144 109.721 66.7889 108.624 72.7727C108.075 75.7646 106.361 78.4161 103.857 80.1438C101.354 81.8715 98.2666 82.534 95.2747 81.9855C92.2828 81.437 89.6314 79.7224 87.9036 77.219C86.1759 74.7155 85.5134 71.6283 86.0619 68.6364C86.6105 65.6445 85.948 62.5572 84.2202 60.0537C82.4925 57.5503 79.841 55.8357 76.8491 55.2872C73.8572 54.7387 70.77 55.4012 68.2665 57.1289C65.7631 58.8566 64.0485 61.5081 63.5 64.5C69.4838 65.597 74.7867 69.0262 78.2422 74.0331C81.6977 79.04 83.0226 85.2145 81.9256 91.1983C80.8286 97.1821 77.3994 102.485 72.3925 105.94C67.3856 109.396 61.2111 110.721 55.2273 109.624C53.7459 109.352 52.3324 108.792 51.0677 107.974C49.8029 107.156 48.7117 106.097 47.8562 104.857C46.1285 102.354 45.466 99.2666 46.0145 96.2747C46.563 93.2828 48.2776 90.6314 50.781 88.9036C53.2845 87.1759 56.3717 86.5134 59.3636 87.0619C62.3555 87.6105 65.4428 86.948 67.9462 85.2202C70.4497 83.4925 72.1643 80.841 72.7128 77.8491C73.2613 74.8572 72.5988 71.77 70.8711 69.2665C69.1434 66.7631 66.4919 65.0485 63.5 64.5C62.9568 67.4629 61.8354 70.2898 60.1997 72.8192C58.564 75.3487 56.4461 77.5312 53.9669 79.2422C48.96 82.6977 42.7855 84.0226 36.8017 82.9256C30.8179 81.8286 25.515 78.3994 22.0595 73.3925C18.6041 68.3856 17.2791 62.2111 18.3761 56.2273C18.9246 53.2354 20.6392 50.5839 23.1427 48.8562C25.6461 47.1285 28.7334 46.466 31.7253 47.0145C34.7172 47.563 37.3686 49.2776 39.0964 51.781C40.8241 54.2845 41.4866 57.3717 40.9381 60.3636C40.3895 63.3555 41.052 66.4428 42.7798 68.9462C44.5075 71.4497 47.159 73.1643 50.1509 73.7128C53.1428 74.2613 56.23 73.5988 58.7335 71.8711C61.2369 70.1434 62.9515 67.4919 63.5 64.5Z" fill="#478CBF"/>
<path d="M63.5 64.5C60.5371 63.9568 57.7103 62.8353 55.1808 61.1997C52.6513 59.564 50.4688 57.4461 48.7578 54.9669C45.3023 49.96 43.9774 43.7855 45.0744 37.8017C46.1714 31.8179 49.6006 26.515 54.6075 23.0595C59.6144 19.6041 65.7889 18.2791 71.7727 19.3761C74.7646 19.9246 77.4161 21.6392 79.1438 24.1427C80.8715 26.6461 81.534 29.7334 80.9855 32.7253C80.437 35.7172 78.7224 38.3686 76.219 40.0964C73.7155 41.8241 70.6283 42.4866 67.6364 41.9381C64.6445 41.3895 61.5572 42.052 59.0538 43.7798C56.5503 45.5075 54.8357 48.159 54.2872 51.1509C53.7387 54.1428 54.4012 57.23 56.1289 59.7335C57.8566 62.2369 60.5081 63.9515 63.5 64.5ZM63.5 64.5C64.597 58.5162 68.0262 53.2133 73.0331 49.7578C78.04 46.3023 84.2145 44.9774 90.1983 46.0744C96.1821 47.1714 101.485 50.6006 104.94 55.6075C108.396 60.6144 109.721 66.7889 108.624 72.7727C108.075 75.7646 106.361 78.4161 103.857 80.1438C101.354 81.8715 98.2666 82.534 95.2747 81.9855C92.2828 81.437 89.6314 79.7224 87.9036 77.219C86.1759 74.7155 85.5134 71.6283 86.0619 68.6364C86.6105 65.6445 85.948 62.5572 84.2202 60.0538C82.4925 57.5503 79.841 55.8357 76.8491 55.2872C73.8572 54.7387 70.77 55.4012 68.2665 57.1289C65.7631 58.8566 64.0485 61.5081 63.5 64.5ZM63.5 64.5C69.4838 65.597 74.7867 69.0262 78.2422 74.0331C81.6977 79.04 83.0226 85.2145 81.9256 91.1983C80.8286 97.1821 77.3994 102.485 72.3925 105.94C67.3856 109.396 61.2111 110.721 55.2273 109.624C53.7459 109.352 52.3324 108.792 51.0677 107.974C49.8029 107.156 48.7117 106.097 47.8562 104.857C46.1285 102.354 45.466 99.2666 46.0145 96.2747C46.563 93.2828 48.2776 90.6314 50.781 88.9036C53.2845 87.1759 56.3717 86.5134 59.3636 87.0619C62.3555 87.6105 65.4428 86.948 67.9462 85.2202C70.4497 83.4925 72.1643 80.841 72.7128 77.8491C73.2613 74.8572 72.5988 71.77 70.8711 69.2665C69.1434 66.7631 66.4919 65.0485 63.5 64.5ZM63.5 64.5C62.9568 67.4629 61.8353 70.2898 60.1997 72.8192C58.564 75.3487 56.4461 77.5312 53.9669 79.2422C48.96 82.6977 42.7855 84.0226 36.8017 82.9256C30.8179 81.8286 25.515 78.3994 22.0595 73.3925C18.6041 68.3856 17.2791 62.2111 18.3761 56.2273C18.9246 53.2354 20.6392 50.5839 23.1427 48.8562C25.6461 47.1285 28.7334 46.466 31.7253 47.0145C34.7172 47.563 37.3686 49.2776 39.0964 51.781C40.8241 54.2845 41.4866 57.3717 40.9381 60.3636C40.3895 63.3555 41.052 66.4428 42.7798 68.9462C44.5075 71.4497 47.159 73.1643 50.1509 73.7128C53.1428 74.2613 56.23 73.5988 58.7335 71.8711C61.2369 70.1434 62.9515 67.4919 63.5 64.5Z" stroke="white" stroke-width="5"/>
</svg>
